<svg xmlns="http://www.w3.org/2000/svg" width="600" height="400" viewBox="0 0 600 400">
  <defs>
    <linearGradient id="desGrad" x1="0%" y1="0%" x2="100%" y2="100%">
      <stop offset="0%" style="stop-color:#6366f1;stop-opacity:1" />
      <stop offset="100%" style="stop-color:#8b5cf6;stop-opacity:1" />
    </linearGradient>
  </defs>
  <rect width="600" height="400" fill="#0f0f1a"/>
  <rect x="100" y="80" width="400" height="200" rx="8" fill="#1a1a2e" stroke="url(#desGrad)" stroke-width="2"/>
  <rect x="120" y="100" width="100" height="80" rx="4" fill="#6366f1" opacity="0.7"/>
  <rect x="240" y="100" width="120" height="15" rx="2" fill="#8b5cf6" opacity="0.8"/>
  <rect x="240" y="130" width="80" height="10" rx="2" fill="#6366f1" opacity="0.5"/>
  <rect x="240" y="155" width="100" height="10" rx="2" fill="#6366f1" opacity="0.5"/>
  <rect x="380" y="100" width="100" height="80" rx="4" fill="#8b5cf6" opacity="0.5"/>
  <rect x="120" y="200" width="80" height="60" rx="4" fill="#6366f1" opacity="0.5"/>
  <rect x="220" y="200" width="80" height="60" rx="4" fill="#8b5cf6" opacity="0.5"/>
  <rect x="320" y="200" width="80" height="60" rx="4" fill="#6366f1" opacity="0.5"/>
  <rect x="420" y="200" width="60" height="60" rx="4" fill="#8b5cf6" opacity="0.5"/>
  <text x="300" y="360" font-family="Arial" font-size="32" fill="white" text-anchor="middle" font-weight="bold">WEB DESIGN</text>
</svg>