<svg xmlns="http://www.w3.org/2000/svg" width="600" height="400" viewBox="0 0 600 400">
  <defs>
    <linearGradient id="respGrad" x1="0%" y1="0%" x2="100%" y2="100%">
      <stop offset="0%" style="stop-color:#22d3ee;stop-opacity:1" />
      <stop offset="100%" style="stop-color:#06b6d4;stop-opacity:1" />
    </linearGradient>
  </defs>
  <rect width="600" height="400" fill="#0f0f1a"/>
  <rect x="50" y="80" width="280" height="180" rx="6" fill="#1a1a2e" stroke="#22d3ee" stroke-width="2"/>
  <rect x="60" y="90" width="260" height="15" rx="2" fill="#22d3ee" opacity="0.5"/>
  <rect x="80" y="120" width="80" height="60" rx="4" fill="#06b6d4" opacity="0.6"/>
  <rect x="180" y="120" width="140" height="12" rx="2" fill="#22d3ee" opacity="0.7"/>
  <rect x="180" y="145" width="100" height="8" rx="2" fill="#22d3ee" opacity="0.5"/>
  <rect x="180" y="165" width="120" height="8" rx="2" fill="#22d3ee" opacity="0.5"/>
  <rect x="350" y="80" width="120" height="180" rx="6" fill="#1a1a2e" stroke="#06b6d4" stroke-width="2"/>
  <rect x="360" y="90" width="100" height="12" rx="2" fill="#06b6d4" opacity="0.7"/>
  <rect x="360" y="115" width="60" height="50" rx="4" fill="#22d3ee" opacity="0.5"/>
  <rect x="360" y="180" width="100" height="8" rx="2" fill="#06b6d4" opacity="0.5"/>
  <rect x="360" y="200" width="80" height="8" rx="2" fill="#06b6d4" opacity="0.5"/>
  <rect x="490" y="80" width="60" height="180" rx="6" fill="#1a1a2e" stroke="#22d3ee" stroke-width="1"/>
  <rect x="498" y="90" width="44" height="10" rx="2" fill="#22d3ee" opacity="0.6"/>
  <rect x="498" y="115" width="44" height="50" rx="4" fill="#06b6d4" opacity="0.5"/>
  <circle cx="520" cy="245" r="8" fill="#22d3ee"/>
  <text x="300" y="370" font-family="Arial" font-size="28" fill="white" text-anchor="middle" font-weight="bold">RESPONSIVE DESIGN</text>
</svg>