<svg xmlns="http://www.w3.org/2000/svg" viewBox="0 0 400 300">
  <defs>
    <linearGradient id="bg" x1="0%" y1="0%" x2="100%" y2="100%">
      <stop offset="0%" style="stop-color:#0a0a0f"/>
      <stop offset="100%" style="stop-color:#1a1a2e"/>
    </linearGradient>
  </defs>
  <rect width="400" height="300" fill="url(#bg)"/>
  <!-- Restaurant website -->
  <rect x="30" y="40" width="340" height="220" rx="5" fill="#1a1a2e" stroke="#FFD700" stroke-width="1"/>
  <!-- Hero with food image -->
  <rect x="30" y="40" width="340" height="120" fill="#15152a"/>
  <circle cx="200" cy="100" r="40" fill="none" stroke="#FFD700" stroke-width="2"/>
  <circle cx="200" cy="100" r="25" fill="#FFD700" opacity="0.5"/>
  <path d="M185 100 L195 90 L195 110 Z" fill="#FFD700"/>
  <!-- Menu section -->
  <rect x="30" y="160" width="340" height="100" fill="#0f0f1a"/>
  <rect x="50" y="175" width="100" height="8" rx="2" fill="#FFD700" opacity="0.6"/>
  <rect x="50" y="190" width="80" height="6" rx="1" fill="#444"/>
  <rect x="50" y="202" width="90" height="6" rx="1" fill="#444"/>
  <rect x="180" y="175" width="100" height="8" rx="2" fill="#FFD700" opacity="0.6"/>
  <rect x="180" y="190" width="80" height="6" rx="1" fill="#444"/>
  <rect x="180" y="202" width="90" height="6" rx="1" fill="#444"/>
  <text x="200" y="285" text-anchor="middle" fill="#FFD700" font-size="14" font-family="Georgia">Restaurant Gourmet</text>
</svg>