<svg xmlns="http://www.w3.org/2000/svg" viewBox="0 0 120 120" fill="none">
  <!-- 
    E-DÉSIGNE - BRAND LOGO (Light Version)
    For dark backgrounds
  -->
  
  <!-- Transparent Background -->
  <rect width="120" height="120" rx="24" fill="none"/>
  
  <!-- Main "E" Symbol - White/Light -->
  <g transform="translate(24, 24)">
    <path 
      d="M8 8H56C58.2091 8 60 9.79086 60 12V20C60 22.2091 58.2091 24 56 24H32V36H52C54.2091 36 56 37.7909 56 40V48C56 50.2091 54.2091 52 52 52H32V64H56C58.2091 64 60 65.7909 60 68V76C60 78.2091 58.2091 80 56 80H8V8Z" 
      fill="#FFFFFF"
    />
    
    <!-- AI Neural Flow - Blue Accent -->
    <path
      d="M20 28L28 32L20 36"
      stroke="#4B6CB7"
      stroke-width="3"
      stroke-linecap="round"
      stroke-linejoin="round"
    />
    
    <path
      d="M20 52L28 56L20 60"
      stroke="#4B6CB7"
      stroke-width="3"
      stroke-linecap="round"
      stroke-linejoin="round"
    />
    
    <!-- Digital Circuit Details -->
    <circle cx="44" cy="16" r="4" fill="#4B6CB7"/>
    <circle cx="44" cy="72" r="4" fill="#FFD700"/>
    
    <!-- Neural Dots -->
    <circle cx="32" cy="16" r="2" fill="#6B8DD6"/>
    <circle cx="32" cy="72" r="2" fill="#6B8DD6"/>
  </g>
</svg>